<svg xmlns="http://www.w3.org/2000/svg" viewBox="0 0 640 640" id="Code--Streamline-Font-Awesome">
  <desc>
    Code Streamline Icon: https://streamlinehq.com
  </desc>
<!--! Font Awesome Free 6.5.2 by @fontawesome - https://fontawesome.com License - https://fontawesome.com/license/free (Icons: CC BY 4.0, Fonts: SIL OFL 1.1, Code: MIT License) Copyright 2024 Fonticons, Inc.-->
  <path d="M391.3496 70.2765c-16.6613 -4.8024 -34.0087 4.9004 -38.8111 21.5617L227.0887 530.9125c-4.8023 16.6613 4.9004 34.0086 21.5617 38.811s34.0087 -4.9004 38.8111 -21.5617l125.4498 -439.0743c4.8023 -16.6613 -4.9004 -34.0086 -21.5617 -38.811Zm78.9941 117.7072c-12.2509 12.2509 -12.2509 32.1465 0 44.3975L557.8646 320l-87.6189 87.6189c-12.2509 12.2509 -12.2509 32.1465 0 44.3974s32.1465 12.251 44.3975 0l109.7686 -109.7686c12.2509 -12.2509 12.2509 -32.1465 0 -44.3974L514.6432 188.0817c-12.251 -12.251 -32.1465 -12.251 -44.3975 0Zm-300.5894 0c-12.251 -12.251 -32.1465 -12.251 -44.3975 0L15.5882 297.7523c-12.2509 12.2509 -12.2509 32.1465 0 44.3974l109.7686 109.7686c12.251 12.251 32.1465 12.251 44.3975 0s12.2509 -32.1465 0 -44.3975L82.1354 320l87.6189 -87.6189c12.2509 -12.2509 12.2509 -32.1465 0 -44.3974Z" fill="#000000" stroke-width="1"></path>
</svg>